Coordinates
version=1
nRows=21
nColumns=12
inDegrees=yes

Units are S.I. units (second, meters, Newtons, ...)
Angles are in degrees

endheader
time	SC_y	SC_z	SC_x	AC_y	AC_z	AC_x	GH_y	GH_z	GH_yy	EL_x	PS_y
       0.0              -48.71          17.97          57.82          31.78         -16.21         -17.26         -161.4          44.16          175.1          48.56          115.4
    0.0249              -48.71          17.97          57.83          31.78         -16.21         -17.26         -161.4          44.16          175.0          48.57          115.4
    0.0498              -48.71          17.96          57.83          31.79         -16.21         -17.25         -161.3          44.16          175.0          48.58          115.4
    0.0747              -48.71          17.96          57.83           31.8          -16.2         -17.25         -161.3          44.16          174.9          48.59          115.4
    0.0996              -48.71          17.95          57.84           31.8          -16.2         -17.24         -161.3          44.16          174.9          48.61          115.4
    0.1245              -48.71          17.95          57.84          31.81          -16.2         -17.23         -161.3          44.16          174.8          48.62          115.4
    0.1494              -48.71          17.95          57.84          31.81          -16.2         -17.23         -161.3          44.16          174.7          48.63          115.4
    0.1743              -48.71          17.94          57.85          31.82          -16.2         -17.22         -161.3          44.15          174.7          48.65          115.4
    0.1992              -48.71          17.94          57.85          31.83          -16.2         -17.21         -161.3          44.15          174.6          48.67          115.4
    0.2241              -48.71          17.93          57.86          31.84          -16.2          -17.2         -161.3          44.15          174.5          48.69          115.4
     0.249              -48.71          17.93          57.86          31.85          -16.2         -17.19         -161.2          44.15          174.4          48.71          115.3
    0.2739              -48.71          17.92          57.87          31.86          -16.2         -17.19         -161.2          44.15          174.3          48.73          115.3
    0.2988              -48.71          17.91          57.87          31.87          -16.2         -17.17         -161.2          44.15          174.2          48.75          115.3
    0.3237              -48.71          17.91          57.88          31.88          -16.2         -17.16         -161.2          44.15          174.1          48.77          115.3
    0.3486              -48.71           17.9          57.89          31.89          -16.2         -17.15         -161.2          44.15          174.0           48.8          115.3
    0.3735              -48.71          17.89          57.89           31.9          -16.2         -17.14         -161.1          44.14          173.9          48.83          115.3
    0.3984              -48.71          17.88           57.9          31.92          -16.2         -17.12         -161.1          44.14          173.7          48.86          115.2
    0.4233              -48.71          17.87          57.91          31.94          -16.2         -17.11         -161.1          44.14          173.6           48.9          115.2
    0.4482              -48.71          17.86          57.92          31.95         -16.19         -17.09         -161.0          44.14          173.4          48.93          115.2
    0.4731              -48.71          17.85          57.93          31.97         -16.19         -17.07         -161.0          44.13          173.2          48.97          115.2
     0.498              -48.71          17.83          57.94          31.99         -16.19         -17.05         -161.0          44.13          173.0          49.02          115.1
